<svg width="334" height="117" viewBox="0 0 334 117" fill="none" xmlns="http://www.w3.org/2000/svg">
<mask id="mask0_13_3" style="mask-type:luminance" maskUnits="userSpaceOnUse" x="128" y="0" width="28" height="28">
<path d="M128.31 0H155.4V27.0859H128.31V0Z" fill="white"/>
</mask>
<g mask="url(#mask0_13_3)">
<path fill-rule="evenodd" clip-rule="evenodd" d="M141.855 27.0859C134.386 27.0859 128.31 21.0129 128.31 13.5443C128.31 6.07575 134.386 -0.000610352 141.855 -0.000610352C149.323 -0.000610352 155.4 6.07575 155.4 13.5443C155.4 21.0129 149.323 27.0859 141.855 27.0859Z" fill="#121212"/>
</g>
<mask id="mask1_13_3" style="mask-type:luminance" maskUnits="userSpaceOnUse" x="0" y="0" width="334" height="118">
<path d="M2.28882e-05 117H333.867V0.000366211H2.28882e-05V117Z" fill="white"/>
</mask>
<g mask="url(#mask1_13_3)">
<path fill-rule="evenodd" clip-rule="evenodd" d="M130.806 111.832H152.904V41.266H130.806V111.832Z" fill="#121212"/>
</g>
<mask id="mask2_13_3" style="mask-type:luminance" maskUnits="userSpaceOnUse" x="0" y="0" width="334" height="118">
<path d="M2.28882e-05 117H333.867V0.000366211H2.28882e-05V117Z" fill="white"/>
</mask>
<g mask="url(#mask2_13_3)">
<path fill-rule="evenodd" clip-rule="evenodd" d="M229.141 74.2056C228.54 73.648 227.952 73.1539 227.335 72.6832C221.699 68.3629 213.403 65.4616 202.675 64.0561C201.213 63.8424 199.848 63.5052 198.619 63.0578C194.643 61.6055 192.452 59.0581 192.452 55.8897C192.452 51.5728 196.689 48.3143 202.308 48.3143C207.456 48.3543 211.493 51.2556 213.379 56.2803L213.606 56.8613L214.087 58.1733L233.832 51.4259L233.635 50.7215C230.567 39.0295 217.399 30.5426 202.321 30.5426C184.7 30.5426 170.364 41.8673 170.364 55.7929C170.364 61.3451 172.524 66.5534 176.604 70.8569C177.515 71.8118 178.51 72.7232 179.565 73.5646C185.234 78.0718 193.17 81.0398 201.914 81.9146C203.16 82.0414 204.355 82.2684 205.46 82.5956C210.782 84.1615 212.728 87.5636 212.778 89.9974C212.818 92.1876 211.897 94.2342 210.181 95.77C208.415 97.3525 205.951 98.2206 203.246 98.2206H203.056C196.729 98.1371 193.444 94.3811 189.808 89.4666L188.726 87.9008L168.621 94.7751L168.688 94.9787C168.828 95.4061 169.566 97.6129 170.25 99.0118L170.35 99.2222C175.235 109.732 188.029 116.79 202.175 116.79C220.861 116.79 236.062 104.788 236.062 90.0342C236.062 83.7475 233.732 78.4223 229.141 74.2056Z" fill="#121212"/>
</g>
<mask id="mask3_13_3" style="mask-type:luminance" maskUnits="userSpaceOnUse" x="0" y="0" width="334" height="118">
<path d="M2.28882e-05 117H333.867V0.000366211H2.28882e-05V117Z" fill="white"/>
</mask>
<g mask="url(#mask3_13_3)">
<path fill-rule="evenodd" clip-rule="evenodd" d="M290.533 95.4273C278.534 95.4273 268.771 85.6651 268.771 73.666C268.771 61.6668 278.534 51.9046 290.533 51.9046C302.532 51.9046 312.294 61.6668 312.294 73.666C312.294 85.6651 302.532 95.4273 290.533 95.4273ZM290.533 30.3335C266.601 30.3335 247.2 49.7311 247.2 73.666C247.2 97.5975 266.601 117.002 290.533 117.002C314.465 117.002 333.866 97.5975 333.866 73.666C333.866 49.7311 314.465 30.3335 290.533 30.3335Z" fill="#121212"/>
</g>
<mask id="mask4_13_3" style="mask-type:luminance" maskUnits="userSpaceOnUse" x="0" y="0" width="334" height="118">
<path d="M2.28882e-05 117H333.867V0.000366211H2.28882e-05V117Z" fill="white"/>
</mask>
<g mask="url(#mask4_13_3)">
<path fill-rule="evenodd" clip-rule="evenodd" d="M79.6934 31.6274C71.6205 31.6274 63.778 34.5421 57.6114 39.8372L56.8402 40.5016L56.0656 39.8372C49.8991 34.5421 42.0566 31.6274 33.9837 31.6274C15.2437 31.6274 -0.00063324 46.8718 -0.00063324 65.6083V111.829H22.2549V65.6083C22.2549 59.2482 27.6268 53.8796 33.9837 53.8796C40.3405 53.8796 45.7091 59.2482 45.7091 65.6083L45.7124 111.829H67.9646V65.6083C67.968 59.2482 73.3399 53.8796 79.6934 53.8796C86.0502 53.8796 91.4221 59.2482 91.4221 65.6083V111.829H113.678V65.6083C113.678 46.8718 98.43 31.6274 79.6934 31.6274Z" fill="#121212"/>
</g>
</svg>
